 <svg version="1.0" xmlns="http://www.w3.org/2000/svg" width="700.000000pt" height="525.000000pt" viewBox="0 0 700.000000 525.000000" preserveAspectRatio="xMidYMid meet">
<metadata>
Created by potrace 1.12, written by Peter Selinger 2001-2015
</metadata>
<g transform="translate(0.000000,525.000000) scale(0.100000,-0.100000)" fill="#000000" stroke="none">
<path d="M0 4754 l0 -497 38 7 c20 4 69 11 107 16 39 4 86 15 105 23 20 8 86
18 150 22 153 9 295 39 383 80 78 37 45 33 547 64 99 6 121 11 160 33 93 55
180 58 226 7 17 -19 17 -20 -2 -38 -10 -10 -39 -30 -64 -44 -265 -146 -332
-192 -411 -280 -131 -147 -185 -346 -135 -494 19 -57 28 -62 82 -43 25 9 40
34 106 168 59 122 91 174 143 235 37 42 70 77 74 77 4 0 36 23 72 51 97 79
230 138 429 193 95 26 252 38 422 34 135 -4 179 -9 258 -31 97 -26 225 -71
315 -110 140 -61 290 -180 393 -311 56 -71 122 -201 122 -239 0 -14 4 -28 8
-31 5 -3 38 2 72 12 55 15 68 23 91 57 85 124 57 359 -60 505 -61 76 -185 190
-207 190 -3 0 -18 8 -32 18 -15 10 -52 28 -82 41 -30 12 -64 26 -75 31 -42 18
-172 58 -230 70 -33 6 -80 16 -105 22 -34 8 -435 20 -623 18 -23 0 -40 45 -27
69 5 10 35 31 66 47 36 18 68 44 86 69 40 55 61 63 180 74 100 9 340 65 415
97 21 8 79 24 128 35 64 14 108 30 150 57 57 35 64 37 131 34 l72 -2 83 62
c60 44 99 65 137 74 30 7 57 15 60 18 3 3 -841 6 -1876 6 l-1882 0 0 -496z
m2070 -163 c0 -5 -10 -11 -22 -14 -22 -6 -22 -6 -4 8 23 17 26 18 26 6z"></path>
<path d="M5319 4102 c-17 -14 -22 -28 -21 -57 2 -40 11 -58 66 -120 l36 -40
20 25 c59 73 81 115 75 145 -10 46 -39 65 -100 65 -36 0 -60 -6 -76 -18z"></path>
<path d="M1720 3150 c0 -5 5 -10 10 -10 6 0 10 5 10 10 0 6 -4 10 -10 10 -5 0
-10 -4 -10 -10z"></path>
<path d="M690 3140 c0 -5 7 -10 15 -10 8 0 15 5 15 10 0 6 -7 10 -15 10 -8 0
-15 -4 -15 -10z"></path>
<path d="M6430 3120 c0 -5 9 -10 20 -10 11 0 20 5 20 10 0 6 -9 10 -20 10 -11
0 -20 -4 -20 -10z"></path>
<path d="M2070 3110 c0 -5 18 -10 40 -10 22 0 40 5 40 10 0 6 -18 10 -40 10
-22 0 -40 -4 -40 -10z"></path>
<path d="M2470 3111 c0 -15 15 -21 38 -14 32 8 27 23 -8 23 -16 0 -30 -4 -30
-9z"></path>
<path d="M2550 3110 c0 -5 5 -10 10 -10 6 0 10 5 10 10 0 6 -4 10 -10 10 -5 0
-10 -4 -10 -10z"></path>
<path d="M3473 3113 c-100 -6 -73 -20 54 -28 64 -4 124 -12 134 -18 9 -6 24
-7 35 -2 11 4 45 7 77 6 62 -3 78 13 26 24 -18 4 -76 7 -131 8 -54 0 -101 4
-104 9 -3 4 -11 7 -17 6 -7 -1 -40 -3 -74 -5z"></path>
<path d="M260 3100 c0 -5 6 -10 14 -10 8 0 18 5 21 10 3 6 -3 10 -14 10 -12 0
-21 -4 -21 -10z"></path>
<path d="M1650 3100 c0 -5 5 -10 10 -10 6 0 10 5 10 10 0 6 -4 10 -10 10 -5 0
-10 -4 -10 -10z"></path>
<path d="M1855 3100 c3 -5 24 -10 46 -10 21 0 39 5 39 10 0 6 -21 10 -46 10
-27 0 -43 -4 -39 -10z"></path>
<path d="M2270 3100 c0 -6 28 -10 65 -10 37 0 65 4 65 10 0 6 -28 10 -65 10
-37 0 -65 -4 -65 -10z"></path>
<path d="M3180 3100 c0 -5 5 -10 10 -10 6 0 10 5 10 10 0 6 -4 10 -10 10 -5 0
-10 -4 -10 -10z"></path>
<path d="M3310 3100 c0 -5 9 -10 20 -10 11 0 20 5 20 10 0 6 -9 10 -20 10 -11
0 -20 -4 -20 -10z"></path>
<path d="M4250 3100 c0 -5 5 -10 10 -10 6 0 10 5 10 10 0 6 -4 10 -10 10 -5 0
-10 -4 -10 -10z"></path>
<path d="M4420 3100 c0 -5 11 -10 25 -10 14 0 25 5 25 10 0 6 -11 10 -25 10
-14 0 -25 -4 -25 -10z"></path>
<path d="M6620 3100 c0 -5 4 -10 9 -10 6 0 13 5 16 10 3 6 -1 10 -9 10 -9 0
-16 -4 -16 -10z"></path>
<path d="M3970 3090 c0 -6 30 -10 70 -10 40 0 70 4 70 10 0 6 -30 10 -70 10
-40 0 -70 -4 -70 -10z"></path>
<path d="M2860 3063 c0 -8 13 -13 35 -13 19 0 35 4 35 9 0 5 -16 11 -35 13
-24 3 -35 0 -35 -9z"></path>
<path d="M1330 3060 c0 -5 7 -10 16 -10 8 0 12 5 9 10 -3 6 -10 10 -16 10 -5
0 -9 -4 -9 -10z"></path>
<path d="M3040 3060 c0 -5 5 -10 10 -10 6 0 10 5 10 10 0 6 -4 10 -10 10 -5 0
-10 -4 -10 -10z"></path>
<path d="M3180 3060 c0 -5 5 -10 10 -10 6 0 10 5 10 10 0 6 -4 10 -10 10 -5 0
-10 -4 -10 -10z"></path>
<path d="M3240 3060 c0 -5 9 -10 20 -10 11 0 20 5 20 10 0 6 -9 10 -20 10 -11
0 -20 -4 -20 -10z"></path>
<path d="M1660 3046 c0 -11 9 -16 26 -16 31 0 28 23 -4 28 -15 2 -22 -2 -22
-12z"></path>
<path d="M2160 3050 c0 -5 9 -10 20 -10 11 0 20 5 20 10 0 6 -9 10 -20 10 -11
0 -20 -4 -20 -10z"></path>
<path d="M4115 3050 c-3 -5 3 -10 14 -10 12 0 21 5 21 10 0 6 -6 10 -14 10 -8
0 -18 -4 -21 -10z"></path>
<path d="M1620 3040 c0 -5 5 -10 10 -10 6 0 10 5 10 10 0 6 -4 10 -10 10 -5 0
-10 -4 -10 -10z"></path>
<path d="M1760 3040 c0 -5 25 -10 55 -10 30 0 55 5 55 10 0 6 -25 10 -55 10
-30 0 -55 -4 -55 -10z"></path>
<path d="M2070 3040 c0 -5 11 -10 25 -10 14 0 25 5 25 10 0 6 -11 10 -25 10
-14 0 -25 -4 -25 -10z"></path>
<path d="M6360 3040 c0 -5 9 -10 20 -10 11 0 20 5 20 10 0 6 -9 10 -20 10 -11
0 -20 -4 -20 -10z"></path>
<path d="M6432 3039 c2 -7 10 -15 17 -17 8 -3 12 1 9 9 -2 7 -10 15 -17 17 -8
3 -12 -1 -9 -9z"></path>
<path d="M5450 3030 c0 -5 5 -10 10 -10 6 0 10 5 10 10 0 6 -4 10 -10 10 -5 0
-10 -4 -10 -10z"></path>
<path d="M830 3010 c0 -5 11 -10 25 -10 14 0 25 5 25 10 0 6 -11 10 -25 10
-14 0 -25 -4 -25 -10z"></path>
<path d="M970 3010 c0 -5 5 -10 10 -10 6 0 10 5 10 10 0 6 -4 10 -10 10 -5 0
-10 -4 -10 -10z"></path>
<path d="M2158 3013 c-37 -6 -36 -23 1 -23 58 0 151 13 151 21 0 9 -100 10
-152 2z"></path>
<path d="M5970 3010 c0 -5 9 -10 20 -10 11 0 20 5 20 10 0 6 -9 10 -20 10 -11
0 -20 -4 -20 -10z"></path>
<path d="M3210 3000 c0 -5 7 -10 15 -10 8 0 15 5 15 10 0 6 -7 10 -15 10 -8 0
-15 -4 -15 -10z"></path>
<path d="M6060 3001 c0 -12 36 -20 60 -14 34 9 22 23 -20 23 -22 0 -40 -4 -40
-9z"></path>
<path d="M2558 2982 c-27 -2 -38 -8 -38 -19 0 -13 9 -15 53 -9 28 3 76 6 105
6 28 0 52 4 52 9 0 10 -110 18 -172 13z"></path>
<path d="M4833 2983 c-7 -2 -13 -9 -13 -14 0 -15 133 -7 138 9 3 9 -12 12 -55
11 -32 0 -64 -3 -70 -6z"></path>
<path d="M4980 2980 c0 -5 5 -10 10 -10 6 0 10 5 10 10 0 6 -4 10 -10 10 -5 0
-10 -4 -10 -10z"></path>
<path d="M2750 2970 c0 -5 7 -10 15 -10 8 0 15 5 15 10 0 6 -7 10 -15 10 -8 0
-15 -4 -15 -10z"></path>
<path d="M6310 2970 c0 -5 5 -10 10 -10 6 0 10 5 10 10 0 6 -4 10 -10 10 -5 0
-10 -4 -10 -10z"></path>
<path d="M838 2963 c-16 -2 -28 -9 -28 -15 0 -6 12 -8 31 -4 17 3 38 6 45 6 8
0 14 5 14 10 0 10 -12 11 -62 3z"></path>
<path d="M1258 2963 c-54 -5 -66 -23 -15 -23 17 0 62 -3 100 -7 41 -3 67 -2
67 4 0 14 -47 33 -78 31 -15 -1 -48 -3 -74 -5z"></path>
<path d="M2186 2961 c-4 -5 -1 -11 6 -13 18 -6 58 3 58 13 0 12 -57 12 -64 0z"></path>
<path d="M2968 2963 c-31 -8 -20 -23 16 -23 38 0 55 14 30 24 -17 6 -19 6 -46
-1z"></path>
<path d="M660 2950 c0 -5 7 -10 15 -10 8 0 15 5 15 10 0 6 -7 10 -15 10 -8 0
-15 -4 -15 -10z"></path>
<path d="M2865 2950 c-4 -6 8 -10 29 -10 20 0 36 5 36 10 0 6 -13 10 -29 10
-17 0 -33 -4 -36 -10z"></path>
<path d="M3088 2953 c-46 -4 -69 -23 -28 -23 11 0 20 -4 20 -9 0 -11 -144 -21
-197 -14 -51 7 -59 -11 -11 -21 41 -8 237 4 244 15 3 5 31 9 62 9 103 0 112
36 12 43 -30 3 -76 3 -102 0z"></path>
<path d="M0 2915 l0 -28 88 6 c48 3 95 8 105 12 28 12 20 25 -15 25 -18 0 -66
2 -105 6 l-73 6 0 -27z"></path>
<path d="M2700 2932 c0 -10 41 -24 49 -17 6 7 0 11 -26 19 -13 4 -23 3 -23 -2z"></path>
<path d="M4650 2930 c0 -5 18 -10 40 -10 22 0 40 5 40 10 0 6 -18 10 -40 10
-22 0 -40 -4 -40 -10z"></path>
<path d="M4760 2930 c0 -7 24 -20 36 -20 13 0 1 19 -16 23 -11 3 -20 2 -20 -3z"></path>
<path d="M2180 2920 c0 -5 7 -10 16 -10 8 0 12 5 9 10 -3 6 -10 10 -16 10 -5
0 -9 -4 -9 -10z"></path>
<path d="M704 2895 c-18 -13 -18 -14 4 -8 13 3 22 1 22 -6 0 -6 -4 -11 -10
-11 -5 0 -10 -9 -10 -20 0 -18 5 -19 48 -14 26 3 56 9 67 14 11 4 29 11 40 15
16 6 12 9 -24 20 -24 8 -49 11 -55 9 -7 -3 -24 0 -38 5 -19 7 -31 6 -44 -4z"></path>
<path d="M1100 2890 c0 -5 20 -10 45 -10 25 0 45 5 45 10 0 6 -20 10 -45 10
-25 0 -45 -4 -45 -10z"></path>
<path d="M640 2870 c0 -5 5 -10 10 -10 6 0 10 5 10 10 0 6 -4 10 -10 10 -5 0
-10 -4 -10 -10z"></path>
<path d="M595 2850 c3 -5 8 -10 11 -10 2 0 4 5 4 10 0 6 -5 10 -11 10 -5 0 -7
-4 -4 -10z"></path>
<path d="M0 2549 l0 -131 33 7 c17 3 59 15 92 25 33 10 85 22 115 25 30 4 87
15 125 25 39 10 90 22 115 25 79 12 103 52 48 81 -81 42 -142 55 -288 60 -80
2 -166 6 -192 9 l-48 4 0 -130z"></path>
<path d="M2729 2308 c-15 -67 -30 -77 -76 -53 -44 23 -71 -4 -64 -62 5 -34
-17 -6 -41 53 l-27 65 22 9 c21 9 21 9 -3 9 -15 1 -31 6 -37 12 -9 9 -25 0
-62 -31 -28 -24 -51 -47 -51 -52 0 -5 19 7 42 26 23 20 44 36 48 36 11 0 42
-68 36 -78 -4 -6 -2 -13 3 -16 11 -7 -8 -76 -21 -76 -4 0 -5 18 -2 40 5 32 3
40 -8 40 -23 0 -38 -23 -31 -48 10 -40 -64 -71 -95 -40 -9 9 -12 5 -12 -19 0
-35 15 -52 24 -28 6 18 36 9 36 -11 0 -12 4 -12 21 -2 17 10 23 10 26 1 3 -7
11 -13 19 -13 8 0 14 -5 14 -10 0 -6 11 -15 24 -19 20 -8 24 -18 29 -73 4 -42
2 -65 -6 -70 -6 -4 -8 -10 -4 -15 4 -4 15 -3 25 3 11 7 29 8 56 1 27 -7 44 -7
57 1 25 16 29 15 29 -8 0 -24 34 -43 60 -35 24 8 25 18 4 50 -13 20 -14 33 -5
75 6 28 11 72 11 98 0 39 -4 49 -22 57 -13 6 -21 17 -19 25 2 8 5 47 8 85 3
39 9 74 14 80 11 11 12 55 1 55 -5 0 -15 -28 -23 -62z m-19 -119 c0 -20 -4
-29 -12 -27 -15 5 -22 33 -14 54 9 24 26 6 26 -27z m50 -121 c0 -5 -4 -8 -10
-8 -5 0 -10 10 -10 23 0 18 2 19 10 7 5 -8 10 -18 10 -22z"></path>
<path d="M2646 2285 c10 -8 23 -15 28 -15 6 0 1 7 -10 15 -10 8 -23 15 -28 15
-6 0 -1 -7 10 -15z"></path>
<path d="M2350 2180 c0 -5 5 -10 10 -10 6 0 10 5 10 10 0 6 -4 10 -10 10 -5 0
-10 -4 -10 -10z"></path>
<path d="M1220 1658 c-19 -5 -39 -14 -44 -19 -15 -14 23 -48 68 -60 23 -6 88
-26 146 -44 58 -18 131 -38 162 -45 77 -15 202 -106 208 -150 4 -30 -1 -39
-36 -66 -45 -35 -138 -50 -355 -60 -142 -6 -162 -5 -226 14 -38 12 -150 33
-248 47 -99 14 -213 35 -254 46 -74 19 -79 19 -205 3 -153 -20 -229 -12 -350
36 -42 16 -79 30 -81 30 -3 0 -5 -313 -5 -695 l0 -695 3131 0 c2851 0 3130 1
3118 16 -7 8 -34 26 -59 39 -95 48 -165 149 -185 267 -7 46 -53 94 -103 108
-54 14 -79 35 -114 96 -45 81 -105 105 -200 80 -43 -11 -79 -12 -164 -5 -135
11 -207 29 -271 69 -35 22 -72 34 -124 42 -103 15 -240 90 -329 179 -79 79
-101 86 -292 93 -128 4 -141 6 -229 41 -144 58 -285 73 -396 41 -62 -17 -63
-17 -170 9 -59 15 -136 40 -171 56 -36 16 -70 29 -76 29 -7 0 -57 22 -113 50
-55 27 -113 55 -129 61 -106 43 -169 62 -239 70 -57 6 -99 19 -150 43 -79 39
-216 66 -337 66 -40 0 -95 7 -121 15 -42 13 -294 31 -434 32 -82 0 -189 44
-258 106 -57 50 -61 52 -134 59 -105 9 -190 8 -231 -4z"></path>
</g>
</svg>