<?xml version="1.0" encoding="iso-8859-1"?>
<!-- Generator: Adobe Illustrator 16.0.0, SVG Export Plug-In . SVG Version: 6.00 Build 0)  -->
<!DOCTYPE svg PUBLIC "-//W3C//DTD SVG 1.1//EN" "http://www.w3.org/Graphics/SVG/1.1/DTD/svg11.dtd">
<svg version="1.1" id="Capa_1" xmlns="http://www.w3.org/2000/svg" xmlns:xlink="http://www.w3.org/1999/xlink" x="0px" y="0px"
	 width="79.537px" height="79.536px" viewBox="0 0 79.537 79.536" style="enable-background:new 0 0 79.537 79.536;"
	 xml:space="preserve">
<g>
	<path style="fill:#010002;" d="M77.091,14.507c-2.314,0.217-12.018-1.585-15.55-2.587c-3.521-1.002-6.659-7.195-12.95-5.181
		c-6.299,2.009-11.263-2.597-15.547-2.597c-2.967,0-4.528-0.748-5.911-1.543c-0.096-0.956-0.451-1.719-1.214-2.165
		C25.424,0.143,24.88,0,24.301,0c-0.875,0-1.737,0.37-2.561,0.901L4.543,4.163V4.143H1.952v75.394h2.592V8.541l8.702,11.125
		c0.08,0.166,0.223,0.282,0.329,0.424l0.318,0.404l0.036-0.044c0.129,0.122,0.192,0.282,0.352,0.37
		c0.396,0.235,0.836,0.347,1.303,0.347h0.005c0.51,0,1.046-0.196,1.603-0.489c2.571,0.891,6.369,1.781,8.075,1.608
		c2.397-0.261,5.764,0.953,7.778,2.586c2.017,1.634,10.939-0.51,12.953,0c2.02,0.51,7.975,4.052,10.367,5.181
		c2.387,1.14,11.692,0.383,12.955,0c1.254-0.37,5.966-9.157,6.598-10.356C76.548,18.501,78.485,14.385,77.091,14.507z M16.357,7.423
		c-0.795,1.486-2.465,4.911-3.159,7.987L6.227,6.485l12.236-2.322C17.323,5.673,16.534,7.094,16.357,7.423z M18.638,8.637
		c1.22-2.289,2.838-4.277,4.164-5.302l1.737-0.324c0.102,1.152-0.82,4.371-2.985,8.277c-2.884,5.176-5.101,7.164-5.896,7.271
		l-0.207-0.27C15.187,17.147,16.168,13.297,18.638,8.637z"/>
</g>
<g>
</g>
<g>
</g>
<g>
</g>
<g>
</g>
<g>
</g>
<g>
</g>
<g>
</g>
<g>
</g>
<g>
</g>
<g>
</g>
<g>
</g>
<g>
</g>
<g>
</g>
<g>
</g>
<g>
</g>
</svg>
