 <svg version="1.0" xmlns="http://www.w3.org/2000/svg" width="700.000000pt" height="1439.000000pt" viewBox="0 0 700.000000 1439.000000" preserveAspectRatio="xMidYMid meet">
<metadata>
Created by potrace 1.12, written by Peter Selinger 2001-2015
</metadata>
<g transform="translate(0.000000,1439.000000) scale(0.100000,-0.100000)" fill="#000000" stroke="none">
<path d="M895 14166 c-153 -27 -185 -36 -285 -85 -271 -132 -398 -293 -465
-586 -36 -157 -47 -305 -46 -585 1 -233 5 -296 31 -540 6 -58 15 -152 19 -210
5 -58 16 -130 25 -160 9 -30 16 -73 16 -94 0 -22 12 -69 26 -105 15 -36 29
-86 32 -111 2 -25 17 -73 33 -107 16 -33 32 -82 35 -106 4 -25 14 -57 23 -70
82 -122 109 -166 116 -187 4 -14 19 -39 34 -55 14 -17 60 -79 101 -139 41 -59
118 -155 170 -214 52 -59 115 -131 139 -160 24 -28 47 -52 52 -52 4 0 36 -17
70 -38 35 -21 98 -49 139 -62 41 -14 80 -30 87 -38 14 -16 42 -166 54 -287 4
-49 18 -126 29 -170 23 -89 36 -162 55 -310 7 -55 24 -152 38 -216 14 -64 28
-156 32 -205 3 -49 13 -109 20 -134 16 -52 41 -183 60 -320 17 -125 72 -464
91 -565 8 -44 19 -114 25 -155 5 -41 14 -94 19 -118 6 -23 10 -69 10 -102 0
-33 6 -79 14 -102 18 -54 53 -259 66 -382 5 -52 19 -128 30 -168 11 -40 24
-103 30 -140 5 -38 15 -98 20 -135 6 -38 15 -97 20 -133 13 -81 23 -146 49
-285 11 -60 24 -153 30 -205 6 -52 18 -122 26 -155 38 -163 45 -200 60 -325 8
-74 22 -169 30 -210 30 -160 45 -249 55 -350 6 -58 22 -159 35 -225 14 -66 36
-196 49 -290 14 -93 40 -237 57 -320 17 -82 41 -206 55 -275 13 -69 36 -186
52 -260 16 -74 35 -175 42 -225 7 -49 23 -128 36 -174 13 -46 24 -89 24 -97 0
-8 5 -14 10 -14 14 0 13 5 -10 91 -11 41 -29 135 -40 209 -19 124 -73 418
-120 650 -28 138 -77 425 -85 495 -4 33 -18 125 -31 205 -13 80 -31 197 -38
260 -8 63 -22 162 -31 220 -23 146 -33 234 -27 240 3 3 7 -1 10 -9 8 -23 50
-61 67 -61 24 0 67 48 61 68 -3 9 -14 91 -26 181 -21 166 -35 212 -69 231 -25
13 -51 13 -51 0 0 -5 6 -10 14 -10 8 0 26 -14 41 -32 23 -27 26 -39 22 -75 -2
-24 -1 -45 3 -48 10 -6 44 -250 37 -269 -7 -19 -52 -21 -64 -3 -4 6 -16 54
-25 106 -9 52 -23 98 -30 102 -10 7 -10 11 0 21 14 14 16 48 3 48 -6 0 -13 -4
-16 -10 -13 -20 -22 -9 -28 33 -4 23 -16 93 -27 156 -11 63 -18 116 -16 119 3
2 16 -8 29 -23 20 -24 28 -27 59 -21 58 11 71 33 59 103 -5 32 -18 109 -27
171 -10 62 -26 126 -36 142 -21 35 -59 47 -95 31 -25 -11 -25 -14 -21 -81 10
-137 -24 -52 -37 95 -4 39 -15 108 -25 155 -10 47 -21 110 -24 140 -6 50 -43
253 -66 355 -5 22 -14 81 -20 130 -6 50 -20 136 -31 192 -11 56 -22 121 -23
145 -4 55 -33 232 -52 323 -8 39 -21 117 -29 175 -24 170 -45 304 -51 320 -3
8 -12 62 -19 120 -12 92 -32 208 -65 375 -5 28 -19 113 -30 190 -12 77 -30
174 -41 217 -10 42 -19 94 -19 115 0 57 -47 317 -66 363 -3 8 -9 53 -14 100
-25 268 -51 355 -110 358 -31 1 -134 43 -205 82 -71 39 -98 65 -207 200 -20
25 -55 65 -78 89 -23 25 -65 79 -93 120 -28 42 -75 107 -104 145 -42 55 -53
77 -53 107 0 21 -5 61 -12 89 -10 44 -9 58 6 100 10 27 15 58 11 69 -15 47 -8
80 23 116 18 20 32 46 32 59 0 38 23 49 93 44 47 -3 81 -13 132 -38 37 -19 70
-41 73 -48 2 -7 -1 -24 -8 -38 -19 -35 -1 -67 55 -94 33 -16 55 -20 78 -16 66
13 70 12 79 -19 5 -16 13 -68 19 -114 10 -86 54 -231 70 -231 13 0 11 20 -8
81 -9 30 -15 68 -14 86 1 17 -8 69 -20 114 -14 53 -19 97 -15 123 20 144 22
129 -23 192 -44 61 -48 79 -28 134 31 87 63 103 108 53 13 -16 17 -22 9 -15
-39 34 -103 -6 -98 -61 4 -40 23 -33 23 8 0 26 3 30 29 30 17 0 33 -7 40 -18
9 -16 7 -22 -11 -34 -13 -9 -23 -19 -23 -24 0 -18 29 -8 48 16 l20 25 10 -28
c6 -15 13 -49 15 -76 4 -41 11 -55 36 -75 26 -21 34 -39 46 -92 16 -79 46
-141 77 -163 16 -12 47 -16 108 -16 62 0 92 -4 108 -16 30 -20 20 -32 -63 -79
-100 -56 -134 -110 -104 -167 16 -29 70 -48 142 -48 36 0 84 -7 107 -15 62
-22 83 -19 133 19 68 52 80 56 180 67 80 8 180 27 322 61 37 9 38 11 20 24
-35 26 -146 48 -367 74 -120 14 -164 26 -189 51 -18 18 -18 22 -5 47 20 39 43
47 260 94 168 36 207 41 326 42 119 1 140 -2 180 -21 57 -27 104 -39 203 -52
57 -8 96 -20 140 -45 113 -62 285 -126 371 -138 89 -12 138 -32 175 -72 l24
-25 -18 -87 c-16 -75 -22 -87 -44 -96 -47 -17 -100 -11 -210 27 -101 36 -152
41 -135 14 10 -16 115 -62 200 -88 56 -16 80 -30 111 -62 l40 -41 -41 -94
c-40 -93 -42 -95 -83 -106 -61 -15 -70 -30 -48 -78 l18 -40 -39 -62 c-93 -153
-121 -178 -238 -214 -22 -7 -32 -18 -38 -40 -9 -34 -86 -112 -207 -208 -38
-31 -72 -60 -75 -65 -3 -5 -36 -12 -73 -16 -82 -8 -133 -28 -133 -51 0 -12 5
-14 18 -9 9 4 53 14 97 22 44 8 85 18 91 21 52 29 183 135 249 199 88 86 146
133 187 150 14 7 53 47 85 90 65 85 183 274 183 291 0 6 20 53 44 105 51 111
59 139 62 227 1 36 12 108 24 160 16 72 21 112 16 165 -4 52 -1 87 13 135 25
86 34 162 22 192 -9 25 -4 59 35 213 8 33 41 111 72 173 45 90 60 112 77 112
13 0 44 24 80 61 61 64 118 99 160 99 14 0 64 -13 111 -30 l86 -29 96 25 c124
32 314 37 437 10 97 -21 293 -84 301 -97 3 -5 -30 -9 -79 -9 -106 0 -184 -13
-271 -47 l-69 -26 -68 23 c-59 21 -72 22 -107 12 -41 -12 -77 -43 -120 -102
-15 -19 -37 -44 -50 -55 -15 -13 -35 -57 -57 -124 -29 -88 -33 -113 -28 -162
3 -31 0 -94 -6 -139 -9 -55 -9 -85 -2 -94 27 -32 21 -179 -11 -259 -9 -23 -8
-31 7 -47 24 -26 15 -114 -24 -239 -16 -50 -27 -101 -24 -112 6 -23 -13 -78
-77 -219 -27 -58 -51 -117 -54 -132 -10 -43 -152 -215 -219 -264 -34 -24 -68
-44 -77 -44 -14 0 -143 -48 -220 -82 -37 -17 -116 -48 -245 -97 -128 -50 -256
-73 -347 -65 -79 8 -238 -4 -238 -17 0 -5 43 -9 95 -9 109 0 373 -26 425 -41
30 -9 57 -6 162 20 69 17 163 42 207 56 45 14 86 23 91 20 22 -14 100 -125
133 -192 34 -67 41 -74 104 -109 93 -51 136 -86 187 -152 65 -85 109 -180 142
-306 13 -51 24 -68 78 -120 84 -81 103 -133 117 -315 8 -109 14 -140 29 -156
61 -65 100 -206 107 -385 4 -88 10 -130 20 -141 50 -57 76 -212 63 -372 -8
-99 -7 -113 10 -147 39 -76 41 -279 5 -435 -11 -49 -11 -64 0 -85 29 -57 26
-327 -6 -444 -6 -22 -12 -130 -13 -240 -2 -169 -6 -218 -25 -306 -26 -114 -26
-114 -15 -179 10 -63 -14 -291 -42 -396 -15 -56 -24 -113 -23 -150 2 -63 -33
-340 -52 -409 -6 -23 -12 -115 -14 -206 -2 -146 -5 -176 -30 -265 -16 -55 -27
-116 -25 -135 2 -19 3 -96 4 -170 0 -116 -4 -150 -27 -242 -25 -96 -27 -113
-17 -173 14 -88 -3 -275 -36 -389 -11 -40 -12 -62 -3 -115 12 -64 7 -270 -7
-353 -9 -53 11 -49 22 4 4 24 8 135 9 248 1 158 6 223 20 285 13 58 19 129 20
255 2 145 6 190 26 265 19 76 23 118 24 275 2 157 6 198 25 275 19 71 24 121
26 242 1 84 7 176 13 205 20 106 60 404 58 443 0 22 9 78 20 125 23 92 43 251
43 343 0 42 4 59 15 63 14 6 158 -27 200 -46 11 -5 133 -34 270 -65 242 -55
735 -175 960 -234 61 -16 155 -40 210 -53 55 -14 108 -28 118 -32 10 -5 17 -4
17 3 0 17 -31 27 -345 107 -159 40 -333 85 -385 99 -52 14 -144 37 -205 50
-119 28 -144 34 -398 95 -93 22 -177 40 -187 40 -26 0 -30 10 -20 56 15 71 23
174 13 174 -6 0 -13 -26 -17 -57 -7 -62 -25 -133 -36 -146 -4 -5 -46 1 -92 12
-47 12 -93 21 -102 21 -27 0 -29 23 -7 122 28 130 42 284 39 413 -2 63 3 140
10 180 8 39 15 140 18 225 3 134 6 155 20 158 17 4 161 -32 199 -49 11 -5 52
-16 90 -24 464 -103 665 -156 985 -261 107 -36 209 -69 225 -73 136 -40 245
-75 273 -87 38 -16 42 -17 42 -5 0 5 -19 17 -42 26 -47 19 -58 23 -348 115
-107 34 -242 78 -300 96 -146 48 -385 112 -645 174 -121 28 -226 54 -234 56
-11 3 -12 18 -7 67 13 122 19 284 12 320 -14 77 -26 34 -27 -100 -1 -76 -6
-167 -13 -203 -11 -63 -12 -65 -41 -64 -46 2 -186 41 -202 57 -12 12 -11 32 7
138 27 154 24 288 -9 363 -19 44 -21 59 -15 170 9 169 -14 297 -65 363 -14 17
-18 43 -19 117 -1 172 -46 347 -101 400 -27 26 -29 32 -36 153 -11 194 -42
276 -130 342 -49 37 -52 43 -74 122 -45 165 -138 326 -221 385 -24 16 -72 45
-109 64 -60 32 -68 40 -97 100 -18 36 -54 97 -81 135 -43 63 -52 70 -85 73
-20 2 -73 -8 -117 -22 -195 -62 -323 -86 -365 -70 -26 10 -19 22 22 35 54 18
305 113 391 148 48 21 90 31 125 31 48 1 91 19 91 40 0 5 34 42 75 82 93 91
163 183 185 245 10 27 40 98 68 160 36 80 57 115 75 123 25 11 25 16 1 76 -11
27 -9 40 12 100 28 79 49 95 139 104 50 5 55 7 58 31 2 21 -4 31 -32 48 -75
47 -109 118 -67 141 11 5 38 10 61 10 55 0 90 34 90 87 0 34 -5 41 -51 72 -58
39 -90 77 -83 95 3 7 23 18 44 25 22 6 46 21 55 34 24 34 19 98 -11 142 -28
42 -26 62 7 67 38 5 82 78 87 144 5 56 5 56 51 76 25 12 95 48 154 81 126 69
167 75 275 38 35 -12 67 -19 72 -16 11 7 255 -22 294 -35 82 -28 73 1 -11 36
-59 24 -389 208 -501 278 -20 12 -105 60 -189 105 -157 85 -193 111 -155 111
12 0 45 -8 74 -18 29 -11 71 -24 93 -31 98 -30 287 -137 528 -299 142 -95 262
-170 268 -166 14 8 3 50 -21 84 -52 73 -248 194 -435 268 -55 22 -143 60 -195
85 -52 24 -119 52 -148 61 -48 16 -55 23 -91 85 -22 37 -58 89 -80 116 -45 55
-58 90 -39 112 10 13 28 15 98 10 74 -5 96 -12 168 -49 56 -28 99 -60 133 -95
68 -74 290 -181 464 -225 115 -29 123 -29 201 -18 96 15 102 14 274 -38 285
-88 362 -150 594 -477 84 -119 129 -210 167 -341 l32 -107 -12 -246 -12 -246
25 -70 c13 -38 33 -95 45 -125 23 -66 51 -253 51 -350 0 -59 8 -91 50 -204 55
-148 70 -222 70 -341 0 -101 15 -157 74 -274 51 -101 125 -293 147 -380 l13
-53 -38 -72 c-22 -39 -57 -107 -79 -151 -45 -90 -46 -58 6 -285 44 -191 24
-454 -55 -742 l-21 -77 31 -163 c45 -238 46 -256 22 -393 -28 -157 -35 -180
-80 -240 -60 -82 -65 -102 -47 -198 51 -265 16 -613 -77 -765 -43 -69 -44 -88
-11 -224 14 -57 25 -116 25 -131 0 -15 7 -44 15 -64 13 -31 14 -56 4 -172 -13
-170 -13 -169 -45 -216 -14 -22 -33 -62 -41 -89 -11 -35 -31 -67 -72 -110 -78
-82 -82 -103 -70 -331 6 -117 6 -207 -1 -260 -5 -44 -10 -113 -10 -155 -1 -86
-19 -139 -92 -266 -61 -107 -108 -221 -118 -291 -5 -32 -16 -101 -25 -153 -13
-72 -16 -122 -11 -210 10 -175 7 -187 -84 -283 -149 -159 -194 -252 -251 -517
-20 -93 -39 -158 -54 -181 -13 -20 -36 -65 -50 -100 -15 -35 -48 -104 -74
-154 -85 -160 -214 -461 -226 -526 -4 -19 -16 -52 -28 -71 -34 -56 -289 -412
-367 -513 -125 -161 -171 -228 -227 -335 -97 -181 -163 -261 -312 -374 -52
-39 -111 -84 -132 -100 -38 -29 -41 -29 -151 -27 -137 2 -239 16 -279 37 -17
8 -36 13 -42 11 -7 -2 7 -14 31 -26 52 -27 207 -51 329 -51 l91 0 94 76 c51
42 119 94 150 115 70 48 145 145 227 296 34 62 61 115 61 118 0 4 26 40 57 81
32 41 88 114 125 162 37 48 107 143 155 212 47 69 117 166 155 217 44 59 74
110 84 145 8 29 29 87 45 128 17 41 39 99 50 128 11 30 67 148 124 262 58 114
105 211 105 216 0 4 13 28 28 53 18 29 37 84 51 146 54 250 80 320 158 432 35
51 81 105 102 122 20 16 51 49 67 72 l29 42 -3 176 c-3 148 0 193 18 291 12
63 26 131 32 150 11 38 97 214 145 295 16 28 34 69 41 92 16 54 27 610 13 646
-7 18 -6 43 2 78 10 44 21 59 70 101 46 41 60 60 72 101 8 29 30 78 49 109 35
57 35 57 42 220 5 130 4 169 -7 189 -7 13 -16 56 -20 94 -4 39 -17 106 -29
150 l-23 81 40 64 c30 48 47 93 66 170 31 129 51 272 43 304 -3 13 -7 80 -7
148 -1 70 -8 142 -15 168 -23 75 -18 97 33 161 52 64 66 103 89 244 31 183 29
201 -33 507 -16 81 -17 75 21 208 29 101 66 356 66 457 0 94 -5 123 -62 389
-11 47 -10 53 21 115 18 35 39 71 46 79 7 8 25 40 40 70 24 48 26 63 22 120
-9 101 -62 251 -160 449 l-51 103 -8 154 c-8 160 -8 160 -85 367 -19 49 -28
93 -28 137 -3 177 -28 301 -104 509 -27 76 -29 87 -18 130 6 27 11 130 11 251
0 196 -1 209 -27 295 -36 114 -87 216 -169 336 -36 51 -75 117 -88 145 -22 52
-91 124 -327 341 -163 150 -314 251 -523 351 -102 49 -435 177 -540 207 -215
63 -1318 433 -1630 548 -796 292 -1470 506 -1760 558 -180 33 -410 35 -575 5z
m-349 -764 c12 -9 25 -27 29 -39 5 -18 1 -25 -19 -34 -22 -10 -31 -8 -66 15
-22 14 -40 33 -40 41 0 11 37 29 70 34 3 0 15 -7 26 -17z m2811 -93 c29 -16
68 -29 87 -29 28 0 41 -8 68 -39 18 -21 57 -50 86 -65 41 -21 52 -31 52 -50 0
-26 53 -79 92 -92 13 -4 40 -21 60 -39 21 -18 73 -43 120 -60 117 -40 149 -61
276 -182 153 -147 150 -160 -22 -94 -55 21 -134 51 -173 66 -69 25 -78 33
-160 126 -80 90 -169 171 -207 185 -8 3 -18 19 -21 36 -8 37 -53 65 -115 73
-66 8 -102 30 -156 94 -27 31 -54 60 -61 64 -7 4 -18 17 -23 28 -10 18 -9 19
17 13 15 -3 52 -19 80 -35z m-2417 -617 c0 -12 -23 -32 -37 -32 -7 0 -13 9
-13 20 0 15 7 20 25 20 14 0 25 -4 25 -8z m75 -262 c4 -6 1 -18 -7 -27 -10
-13 -10 -17 0 -20 17 -6 15 -30 -4 -37 -30 -12 -77 55 -59 84 8 13 62 13 70 0z
m10 -260 c-4 -6 6 -10 24 -10 23 0 33 -7 45 -32 19 -38 21 -88 3 -112 -12 -16
-14 -16 -41 5 -33 26 -67 95 -59 118 7 18 23 41 30 41 2 0 1 -4 -2 -10z m2405
-104 c51 -17 66 -26 68 -43 5 -34 -35 -39 -115 -14 -119 36 -167 100 -65 85
26 -3 76 -16 112 -28z m-820 -52 c0 -2 -9 -4 -20 -4 -11 0 -20 4 -20 9 0 5 9
7 20 4 11 -3 20 -7 20 -9z m198 -28 c45 -22 112 -35 222 -41 98 -7 112 -10
212 -56 59 -27 112 -49 118 -49 21 0 88 -39 94 -55 18 -48 -5 -75 -62 -75 -55
0 -647 220 -719 267 -19 12 -21 18 -11 25 17 12 112 1 146 -16z m-2003 -120
c28 -1 74 -3 103 -4 47 -2 54 -5 72 -34 24 -40 25 -67 3 -75 -43 -17 -303 80
-303 113 0 13 6 15 38 9 20 -3 60 -7 87 -9z m1393 -41 c62 -21 87 -25 194 -24
106 1 140 -3 243 -29 66 -17 162 -38 213 -47 52 -9 119 -27 150 -41 31 -13
124 -40 207 -58 163 -36 195 -49 238 -94 28 -30 28 -30 15 -86 -12 -53 -15
-57 -51 -67 -46 -12 -75 -7 -189 37 -48 19 -152 50 -230 70 -79 19 -175 48
-214 64 -69 28 -215 60 -276 60 -16 0 -61 13 -100 30 -110 47 -181 61 -348 70
-187 10 -287 39 -262 76 12 18 78 53 118 63 64 17 212 4 292 -24z m-153 -5125
c19 -21 25 -45 54 -215 11 -60 22 -118 26 -127 8 -21 -34 -51 -67 -46 -21 3
-24 12 -40 118 -10 63 -16 124 -13 134 2 11 0 25 -4 30 -5 6 -11 37 -15 69 -6
55 -5 57 17 57 13 0 32 -9 42 -20z m-65 -200 c0 -5 -4 -10 -10 -10 -5 0 -10 5
-10 10 0 6 5 10 10 10 6 0 10 -4 10 -10z m10 -80 c0 -11 -4 -20 -10 -20 -5 0
-10 9 -10 20 0 11 5 20 10 20 6 0 10 -9 10 -20z m100 -585 c0 -8 -4 -15 -10
-15 -5 0 -10 7 -10 15 0 8 5 15 10 15 6 0 10 -7 10 -15z"></path>
<path d="M1150 11600 c-46 -46 -5 -151 54 -136 33 8 76 49 76 72 0 23 -64 84
-89 84 -12 0 -30 -9 -41 -20z m75 -36 c14 -15 25 -30 25 -34 0 -13 -62 -52
-70 -44 -12 13 -30 86 -24 96 10 16 46 7 69 -18z"></path>
<path d="M1222 11273 c-24 -9 -32 -51 -21 -106 6 -28 16 -58 21 -64 29 -37
138 15 138 65 0 68 -80 129 -138 105z m82 -56 c15 -19 26 -39 26 -45 0 -18
-70 -66 -80 -56 -12 12 -32 113 -24 125 13 21 54 8 78 -24z"></path>
<path d="M1155 11033 c8 -85 9 -88 24 -78 14 8 14 41 -1 104 -18 78 -31 63
-23 -26z"></path>
<path d="M1691 10925 c-30 -19 -75 -41 -101 -50 -90 -30 -119 -96 -71 -163 25
-35 60 -42 82 -16 18 22 64 44 93 44 14 0 46 -10 70 -22 49 -24 38 -27 127 40
43 33 45 33 119 27 72 -6 77 -5 125 26 l49 31 -26 23 c-33 28 -106 45 -196 45
-48 0 -84 7 -127 25 -33 14 -67 25 -75 25 -8 0 -39 -16 -69 -35z"></path>
<path d="M1281 10896 c-23 -24 -23 -27 -11 -93 14 -80 32 -113 62 -113 28 0
104 45 112 66 12 31 -13 91 -54 128 -47 42 -78 45 -109 12z m94 -43 c48 -52
47 -85 -4 -119 -46 -30 -61 -25 -61 19 0 18 -5 51 -10 75 -6 24 -8 47 -5 53
13 20 48 7 80 -28z"></path>
<path d="M1195 10850 c9 -53 14 -65 26 -53 8 8 -10 76 -25 90 -5 5 -5 -12 -1
-37z"></path>
<path d="M2308 10853 c-27 -7 -22 -21 15 -43 32 -20 72 -25 101 -14 58 22 -50
75 -116 57z"></path>
<path d="M2542 10802 c-28 -18 63 -68 105 -57 13 3 23 10 23 15 0 25 -101 58
-128 42z"></path>
<path d="M4310 10725 c0 -8 5 -15 10 -15 6 0 10 7 10 15 0 8 -4 15 -10 15 -5
0 -10 -7 -10 -15z"></path>
<path d="M4284 10623 c-4 -16 -25 -70 -46 -120 -41 -101 -42 -103 -29 -103 10
0 75 142 85 185 4 17 9 38 12 48 3 9 1 17 -5 17 -6 0 -14 -12 -17 -27z"></path>
<path d="M1240 10610 c0 -11 5 -20 10 -20 6 0 10 9 10 20 0 11 -4 20 -10 20
-5 0 -10 -9 -10 -20z"></path>
<path d="M4870 10560 c0 -5 5 -10 10 -10 6 0 10 5 10 10 0 6 -4 10 -10 10 -5
0 -10 -4 -10 -10z"></path>
<path d="M4940 10540 c0 -5 5 -10 10 -10 6 0 10 5 10 10 0 6 -4 10 -10 10 -5
0 -10 -4 -10 -10z"></path>
<path d="M1361 10493 c-22 -27 -22 -76 0 -165 16 -63 31 -46 22 25 -14 114
-11 132 17 135 34 4 85 -58 95 -115 6 -41 5 -42 -34 -67 -22 -14 -45 -26 -51
-26 -5 0 -10 -4 -10 -10 0 -17 43 -11 85 13 46 26 53 50 35 118 -15 54 -77
119 -113 119 -16 0 -34 -10 -46 -27z"></path>
<path d="M1771 10459 c-30 -16 -69 -29 -87 -29 -46 0 -83 -19 -100 -51 -19
-37 -18 -52 7 -83 26 -33 64 -34 122 -4 23 11 74 24 112 29 39 4 117 12 175
19 58 6 145 23 194 37 54 15 100 23 120 20 17 -4 75 -15 129 -27 55 -11 113
-20 130 -20 30 1 31 1 13 15 -11 8 -28 15 -38 15 -10 0 -46 10 -80 21 -39 14
-84 21 -122 21 -34 -1 -95 8 -138 18 -49 13 -110 20 -171 20 -58 0 -111 6
-137 15 -57 20 -66 19 -129 -16z"></path>
<path d="M4640 10250 c0 -5 5 -10 10 -10 6 0 10 5 10 10 0 6 -4 10 -10 10 -5
0 -10 -4 -10 -10z"></path>
<path d="M5850 10240 c0 -5 5 -10 10 -10 6 0 10 5 10 10 0 6 -4 10 -10 10 -5
0 -10 -4 -10 -10z"></path>
<path d="M4710 10230 c0 -5 5 -10 10 -10 6 0 10 5 10 10 0 6 -4 10 -10 10 -5
0 -10 -4 -10 -10z"></path>
<path d="M4750 10220 c0 -5 5 -10 10 -10 6 0 10 5 10 10 0 6 -4 10 -10 10 -5
0 -10 -4 -10 -10z"></path>
<path d="M5920 10222 c0 -5 55 -27 123 -49 143 -47 177 -56 177 -46 0 5 -57
27 -128 50 -168 55 -172 56 -172 45z"></path>
<path d="M4010 10140 c-43 -39 -59 -59 -48 -60 10 0 25 11 33 24 9 13 34 36
55 51 37 26 51 45 32 45 -4 0 -37 -27 -72 -60z"></path>
<path d="M4850 10191 c0 -10 50 -25 58 -16 8 7 1 11 -30 19 -16 3 -28 2 -28
-3z"></path>
<path d="M4930 10172 c0 -5 26 -16 58 -25 31 -10 95 -29 142 -43 47 -15 108
-32 135 -39 28 -6 60 -15 73 -19 12 -4 22 -3 22 2 0 5 -39 21 -87 35 -337 99
-343 101 -343 89z"></path>
<path d="M1442 10047 c-26 -27 -28 -71 -8 -166 23 -104 58 -122 137 -68 32 22
34 27 31 73 -3 67 -19 109 -54 150 -36 41 -74 45 -106 11z m89 -40 c22 -27 49
-109 49 -148 0 -12 -88 -55 -96 -46 -19 19 -42 206 -27 220 16 16 50 4 74 -26z"></path>
<path d="M1864 9921 c-18 -11 -35 -25 -39 -32 -11 -17 20 -37 70 -45 74 -11
134 39 90 76 -26 22 -87 23 -121 1z"></path>
<path d="M2426 9861 c-9 -13 23 -36 96 -69 169 -76 336 -228 420 -381 12 -21
35 -39 74 -56 81 -36 116 -66 178 -148 69 -92 109 -174 141 -284 17 -58 33
-95 49 -108 33 -29 83 -106 115 -178 31 -69 70 -213 74 -273 2 -38 1 -39 -30
-38 -17 1 -76 15 -130 32 -206 63 -458 119 -486 109 -20 -8 39 -26 167 -52 66
-14 182 -41 256 -60 253 -67 236 -60 266 -111 46 -78 65 -164 71 -324 4 -126
8 -154 31 -210 24 -60 27 -78 30 -251 3 -146 1 -187 -10 -196 -9 -8 -32 -6
-83 8 -81 21 -85 22 -85 11 0 -5 34 -17 75 -27 46 -12 83 -28 96 -41 41 -44
61 -252 38 -399 -6 -38 -12 -162 -13 -275 -2 -113 -6 -256 -11 -318 l-8 -114
-36 5 c-20 2 -61 11 -91 20 -30 8 -91 25 -135 37 -44 11 -88 23 -97 26 -10 3
-18 1 -18 -3 0 -5 78 -31 173 -58 97 -27 181 -56 192 -67 18 -17 20 -31 20
-186 0 -109 -5 -186 -14 -222 -10 -37 -15 -123 -16 -265 -1 -148 -6 -237 -18
-300 -14 -75 -15 -111 -7 -220 6 -89 6 -179 -1 -282 -9 -115 -9 -184 0 -280
10 -99 10 -159 0 -275 -9 -102 -9 -152 -2 -159 18 -18 37 308 25 426 -5 55 -8
120 -6 145 2 25 6 173 8 330 2 203 8 317 20 398 12 78 16 152 14 242 -3 93 1
165 14 253 14 95 18 170 16 337 -2 211 16 743 30 890 8 77 -8 266 -24 291 -5
8 -9 113 -9 234 -1 217 -1 221 -30 295 -22 59 -28 89 -26 140 4 132 -51 389
-95 440 -7 8 -22 62 -34 118 -41 197 -95 320 -185 422 -12 14 -34 62 -49 108
-14 45 -35 104 -47 130 -57 124 -192 276 -274 308 -37 14 -55 30 -99 93 -120
171 -266 286 -476 374 -14 6 -28 12 -32 14 -4 2 -9 -1 -12 -6z"></path>
<path d="M4570 9852 c0 -8 180 -62 210 -62 33 0 -11 18 -95 40 -49 13 -96 25
-102 28 -7 2 -13 0 -13 -6z"></path>
<path d="M3990 9828 c0 -4 22 -51 49 -105 26 -54 54 -114 60 -134 6 -20 20
-44 29 -53 34 -30 152 -60 152 -38 0 4 -27 18 -60 31 -33 13 -64 29 -69 35 -5
6 -32 56 -60 111 -46 89 -100 172 -101 153z"></path>
<path d="M4820 9782 c0 -5 19 -14 43 -20 43 -11 72 -19 332 -91 83 -23 368
-113 635 -201 526 -173 540 -177 540 -162 0 5 -73 33 -162 62 -90 29 -262 86
-383 127 -212 72 -278 92 -540 170 -161 47 -160 47 -319 87 -158 41 -146 39
-146 28z"></path>
<path d="M1522 9587 c-26 -28 -27 -47 -7 -150 8 -43 15 -81 15 -83 0 -2 11
-11 24 -20 23 -14 28 -14 68 4 67 29 73 41 58 115 -25 129 -102 194 -158 134z
m94 -48 c23 -34 29 -53 29 -97 0 -53 -2 -57 -34 -76 -30 -17 -35 -18 -45 -4
-15 20 -41 192 -32 207 16 25 53 11 82 -30z"></path>
<path d="M2430 9470 c0 -5 11 -10 25 -10 14 0 25 5 25 10 0 6 -11 10 -25 10
-14 0 -25 -4 -25 -10z"></path>
<path d="M2500 9460 c0 -5 7 -10 15 -10 8 0 15 5 15 10 0 6 -7 10 -15 10 -8 0
-15 -4 -15 -10z"></path>
<path d="M2670 9440 c0 -5 5 -10 10 -10 6 0 10 5 10 10 0 6 -4 10 -10 10 -5 0
-10 -4 -10 -10z"></path>
<path d="M4370 9315 c0 -5 21 -61 46 -123 25 -63 49 -131 51 -152 8 -55 38
-79 114 -91 35 -5 87 -17 114 -25 209 -61 583 -163 660 -180 149 -33 436 -122
585 -182 85 -34 330 -116 378 -127 18 -3 32 -4 32 0 0 9 -56 31 -255 101 -99
34 -243 85 -320 112 -77 27 -158 53 -180 59 -68 19 -268 71 -530 139 -137 35
-266 69 -285 74 -19 6 -74 21 -121 34 -159 45 -147 34 -204 189 -44 120 -84
202 -85 172z"></path>
<path d="M5030 9281 c0 -8 148 -52 275 -82 28 -6 103 -27 168 -45 132 -38 127
-37 127 -26 0 14 -118 52 -337 107 -247 61 -233 58 -233 46z"></path>
<path d="M1600 9140 c-23 -23 -24 -36 -9 -133 15 -99 31 -127 72 -127 17 0 47
9 65 20 27 17 32 26 32 58 0 137 -96 246 -160 182z m82 -37 c27 -29 56 -129
45 -156 -3 -8 -20 -22 -39 -31 -29 -15 -34 -15 -44 -1 -14 18 -38 190 -29 205
11 18 41 11 67 -17z"></path>
<path d="M2550 9000 c0 -5 14 -10 30 -10 17 0 30 5 30 10 0 6 -13 10 -30 10
-16 0 -30 -4 -30 -10z"></path>
<path d="M2055 8990 c-4 -7 -3 -16 3 -22 14 -14 45 -2 40 15 -6 16 -34 21 -43
7z"></path>
<path d="M2640 8990 c0 -5 11 -10 25 -10 14 0 25 5 25 10 0 6 -11 10 -25 10
-14 0 -25 -4 -25 -10z"></path>
<path d="M2720 8980 c0 -5 7 -10 15 -10 8 0 15 5 15 10 0 6 -7 10 -15 10 -8 0
-15 -4 -15 -10z"></path>
<path d="M2800 8960 c0 -5 9 -10 20 -10 11 0 20 5 20 10 0 6 -9 10 -20 10 -11
0 -20 -4 -20 -10z"></path>
<path d="M6320 8875 c0 -5 24 -16 68 -29 35 -11 26 11 -9 23 -34 12 -59 14
-59 6z"></path>
<path d="M6445 8830 c3 -5 10 -10 16 -10 5 0 9 5 9 10 0 6 -7 10 -16 10 -8 0
-12 -4 -9 -10z"></path>
<path d="M1670 8701 c-13 -25 -13 -60 1 -135 18 -103 29 -135 48 -145 24 -13
82 3 106 29 17 19 18 27 6 98 -7 42 -19 89 -27 104 -31 61 -111 90 -134 49z
m81 -29 c26 -23 34 -40 45 -102 7 -41 13 -81 13 -88 1 -17 -69 -46 -81 -34
-10 10 -24 87 -34 190 -8 73 5 81 57 34z"></path>
<path d="M4641 8594 c4 -79 6 -87 32 -110 17 -15 41 -24 60 -24 18 0 82 -13
142 -30 444 -121 695 -183 705 -173 8 8 -33 28 -85 39 -191 44 -722 178 -774
197 -39 14 -51 39 -51 107 0 54 -7 80 -22 80 -6 0 -9 -33 -7 -86z"></path>
<path d="M4754 8268 c4 -18 10 -93 13 -165 3 -83 10 -136 17 -142 7 -6 48 -17
91 -26 44 -9 169 -41 278 -70 109 -30 226 -60 260 -66 89 -17 287 -76 572
-172 521 -176 643 -212 538 -159 -80 41 -827 287 -1028 339 -115 30 -271 70
-345 89 -74 20 -177 46 -228 59 -51 13 -98 28 -106 34 -9 7 -15 46 -19 114 -3
56 -10 123 -17 150 -14 53 -36 66 -26 15z"></path>
<path d="M3690 8282 c0 -5 20 -15 44 -21 54 -13 56 -13 56 -2 0 5 -16 12 -36
15 -19 4 -42 10 -50 13 -8 3 -14 1 -14 -5z"></path>
<path d="M1746 8251 c-15 -17 -18 -31 -13 -73 15 -125 34 -228 47 -242 17 -22
58 -20 98 4 37 23 39 39 18 168 -10 65 -20 91 -43 120 -36 45 -79 54 -107 23z
m80 -40 c25 -32 32 -56 43 -132 13 -92 13 -93 -10 -111 -12 -11 -32 -18 -43
-16 -17 2 -22 13 -28 53 -16 111 -27 228 -22 237 11 17 31 7 60 -31z"></path>
<path d="M3810 8252 c0 -7 219 -72 244 -72 16 0 3 18 -16 23 -23 4 -176 44
-210 53 -10 3 -18 1 -18 -4z"></path>
<path d="M4080 8180 c0 -5 5 -10 10 -10 6 0 10 5 10 10 0 6 -4 10 -10 10 -5 0
-10 -4 -10 -10z"></path>
<path d="M4570 8031 c0 -5 7 -11 15 -15 8 -3 15 -1 15 3 0 5 -7 11 -15 15 -8
3 -15 1 -15 -3z"></path>
<path d="M2360 8020 c0 -6 27 -10 60 -10 33 0 60 4 60 10 0 6 -27 10 -60 10
-33 0 -60 -4 -60 -10z"></path>
<path d="M2500 8023 c0 -11 46 -23 86 -23 13 0 24 5 24 10 0 6 -11 10 -24 10
-13 0 -38 3 -55 6 -18 4 -31 2 -31 -3z"></path>
<path d="M4630 8012 c0 -5 14 -12 31 -16 44 -8 55 -8 44 3 -15 14 -75 24 -75
13z"></path>
<path d="M2635 8000 c3 -5 17 -10 31 -10 13 0 24 5 24 10 0 6 -14 10 -31 10
-17 0 -28 -4 -24 -10z"></path>
<path d="M2710 7992 c0 -10 21 -15 113 -28 29 -4 47 -2 47 4 0 5 -21 13 -47
16 -27 4 -63 10 -80 13 -19 3 -33 1 -33 -5z"></path>
<path d="M2890 7960 c0 -5 14 -10 30 -10 17 0 30 5 30 10 0 6 -13 10 -30 10
-16 0 -30 -4 -30 -10z"></path>
<path d="M2982 7948 c3 -7 24 -16 49 -19 24 -3 61 -9 82 -13 21 -5 37 -4 37 1
0 5 -35 17 -77 26 -92 21 -96 21 -91 5z"></path>
<path d="M1816 7767 c-16 -23 -11 -116 15 -276 12 -79 21 -91 68 -91 51 0 81
23 81 64 0 75 -31 240 -51 267 -43 60 -88 75 -113 36z m78 -42 c22 -28 29 -56
43 -150 18 -130 14 -144 -43 -148 -29 -2 -29 -1 -36 63 -4 36 -10 97 -13 135
-3 39 -9 85 -12 103 -4 27 -2 32 15 32 11 0 31 -16 46 -35z"></path>
<path d="M4845 7589 c-4 -61 -3 -115 2 -119 12 -13 63 -23 63 -13 0 4 -10 13
-22 18 -22 10 -23 14 -19 118 5 144 -14 141 -24 -4z"></path>
<path d="M2260 7490 c0 -5 7 -10 15 -10 8 0 15 5 15 10 0 6 -7 10 -15 10 -8 0
-15 -4 -15 -10z"></path>
<path d="M2510 7480 c0 -5 20 -10 45 -10 25 0 45 5 45 10 0 6 -20 10 -45 10
-25 0 -45 -4 -45 -10z"></path>
<path d="M2630 7470 c0 -5 14 -10 30 -10 17 0 30 5 30 10 0 6 -13 10 -30 10
-16 0 -30 -4 -30 -10z"></path>
<path d="M2710 7460 c0 -5 14 -10 30 -10 17 0 30 5 30 10 0 6 -13 10 -30 10
-16 0 -30 -4 -30 -10z"></path>
<path d="M2800 7452 c0 -5 15 -12 33 -15 54 -8 53 8 -1 19 -19 4 -32 2 -32 -4z"></path>
<path d="M4970 7442 c0 -10 41 -24 49 -17 6 7 0 11 -26 19 -13 4 -23 3 -23 -2z"></path>
<path d="M2900 7430 c0 -5 5 -10 10 -10 6 0 10 5 10 10 0 6 -4 10 -10 10 -5 0
-10 -4 -10 -10z"></path>
<path d="M5040 7421 c0 -4 21 -14 48 -21 406 -105 538 -133 510 -104 -11 10
-511 134 -543 134 -8 0 -15 -4 -15 -9z"></path>
<path d="M2990 7410 c0 -5 11 -10 25 -10 14 0 25 5 25 10 0 6 -11 10 -25 10
-14 0 -25 -4 -25 -10z"></path>
<path d="M3060 7402 c0 -11 69 -26 78 -18 8 9 1 13 -40 20 -22 4 -38 3 -38 -2z"></path>
<path d="M3390 7320 c0 -5 7 -10 15 -10 8 0 15 5 15 10 0 6 -7 10 -15 10 -8 0
-15 -4 -15 -10z"></path>
<path d="M3490 7300 c0 -5 5 -10 10 -10 6 0 10 5 10 10 0 6 -4 10 -10 10 -5 0
-10 -4 -10 -10z"></path>
<path d="M1893 7268 c-6 -7 -12 -20 -15 -28 -8 -22 13 -174 48 -358 6 -31 47
-46 91 -31 43 14 57 40 44 82 -5 18 -12 52 -16 77 -13 101 -27 177 -37 203
-20 53 -91 86 -115 55z m64 -30 c11 -13 26 -55 35 -98 35 -168 47 -245 40
-251 -16 -15 -72 -21 -77 -7 -10 27 -43 233 -38 241 3 4 -1 30 -7 58 -19 77 4
104 47 57z"></path>
<path d="M6230 7070 c0 -5 5 -10 10 -10 6 0 10 5 10 10 0 6 -4 10 -10 10 -5 0
-10 -4 -10 -10z"></path>
<path d="M6300 7051 c0 -11 39 -26 47 -17 8 8 3 12 -24 20 -13 4 -23 3 -23 -3z"></path>
<path d="M6370 7031 c0 -10 50 -25 58 -17 2 3 -7 10 -22 16 -33 12 -36 12 -36
1z"></path>
<path d="M6465 6990 c3 -5 10 -10 16 -10 5 0 9 5 9 10 0 6 -7 10 -16 10 -8 0
-12 -4 -9 -10z"></path>
<path d="M2346 6932 c-3 -6 -1 -14 5 -17 15 -10 25 3 12 16 -7 7 -13 7 -17 1z"></path>
<path d="M3040 6840 c0 -5 9 -10 20 -10 11 0 20 5 20 10 0 6 -9 10 -20 10 -11
0 -20 -4 -20 -10z"></path>
<path d="M4876 6748 c-4 -35 -16 -114 -28 -175 -19 -103 -20 -138 -1 -120 10
10 52 264 53 315 0 64 -17 50 -24 -20z"></path>
<path d="M4080 6609 c0 -4 26 -16 58 -24 31 -9 80 -22 107 -30 83 -24 105 -28
105 -19 0 8 -74 31 -237 74 -19 4 -33 4 -33 -1z"></path>
<path d="M4832 6411 c4 -13 18 -16 19 -4 0 4 -5 9 -11 12 -7 2 -11 -2 -8 -8z"></path>
<path d="M4920 6380 c0 -5 5 -10 10 -10 6 0 10 5 10 10 0 6 -4 10 -10 10 -5 0
-10 -4 -10 -10z"></path>
<path d="M4960 6370 c0 -5 7 -10 15 -10 8 0 15 5 15 10 0 6 -7 10 -15 10 -8 0
-15 -4 -15 -10z"></path>
<path d="M5030 6360 c0 -5 5 -10 10 -10 6 0 10 5 10 10 0 6 -4 10 -10 10 -5 0
-10 -4 -10 -10z"></path>
<path d="M4816 6259 c-6 -74 -4 -100 8 -88 10 10 18 169 9 169 -6 0 -13 -37
-17 -81z"></path>
<path d="M5227 6309 c11 -11 211 -68 241 -69 27 0 10 19 -25 30 -21 6 -47 15
-58 20 -71 30 -182 43 -158 19z"></path>
<path d="M3130 6252 c0 -13 17 -19 103 -37 64 -13 89 -13 76 0 -3 2 -36 11
-75 19 -38 8 -77 18 -86 21 -10 4 -18 3 -18 -3z"></path>
<path d="M2046 6124 c8 -46 13 -56 23 -50 12 8 -2 79 -17 84 -10 3 -12 -5 -6
-34z"></path>
<path d="M4800 6105 c0 -14 5 -25 10 -25 6 0 10 11 10 25 0 14 -4 25 -10 25
-5 0 -10 -11 -10 -25z"></path>
<path d="M3830 6073 c0 -5 62 -24 138 -42 75 -18 145 -35 155 -38 9 -2 17 0
17 5 0 6 -60 24 -132 41 -73 18 -143 35 -155 38 -13 3 -23 1 -23 -4z"></path>
<path d="M4160 5990 c0 -5 5 -10 10 -10 6 0 10 5 10 10 0 6 -4 10 -10 10 -5 0
-10 -4 -10 -10z"></path>
<path d="M4200 5980 c0 -5 5 -10 10 -10 6 0 10 5 10 10 0 6 -4 10 -10 10 -5 0
-10 -4 -10 -10z"></path>
<path d="M4240 5970 c0 -5 5 -10 10 -10 6 0 10 5 10 10 0 6 -4 10 -10 10 -5 0
-10 -4 -10 -10z"></path>
<path d="M4280 5962 c0 -10 41 -24 49 -17 6 7 0 11 -26 19 -13 4 -23 3 -23 -2z"></path>
<path d="M4350 5942 c0 -10 101 -45 108 -37 10 9 -11 23 -44 29 -19 4 -42 10
-50 13 -8 3 -14 0 -14 -5z"></path>
<path d="M2190 5633 c0 -4 9 -17 21 -29 15 -16 25 -46 32 -98 13 -92 32 -103
22 -13 -8 70 -19 104 -42 129 -16 18 -33 24 -33 11z"></path>
<path d="M2133 5586 c4 -10 7 -26 7 -37 0 -10 5 -19 11 -19 15 0 6 63 -10 68
-10 3 -12 0 -8 -12z"></path>
<path d="M4750 5530 c0 -5 5 -10 10 -10 6 0 10 5 10 10 0 6 -4 10 -10 10 -5 0
-10 -4 -10 -10z"></path>
<path d="M2150 5490 c0 -11 5 -20 10 -20 6 0 10 9 10 20 0 11 -4 20 -10 20 -5
0 -10 -9 -10 -20z"></path>
<path d="M4740 5490 c0 -5 5 -10 10 -10 6 0 10 5 10 10 0 6 -4 10 -10 10 -5 0
-10 -4 -10 -10z"></path>
<path d="M4717 5403 c-25 -94 -28 -113 -18 -113 5 0 16 28 24 63 8 34 18 72
22 85 4 12 3 22 -3 22 -5 0 -16 -26 -25 -57z"></path>
<path d="M2260 5385 c0 -8 5 -15 10 -15 6 0 10 7 10 15 0 8 -4 15 -10 15 -5 0
-10 -7 -10 -15z"></path>
<path d="M2270 5315 c0 -8 5 -15 10 -15 6 0 10 7 10 15 0 8 -4 15 -10 15 -5 0
-10 -7 -10 -15z"></path>
<path d="M2280 5255 c0 -8 5 -15 10 -15 6 0 10 7 10 15 0 8 -4 15 -10 15 -5 0
-10 -7 -10 -15z"></path>
<path d="M2190 5245 c0 -8 5 -15 10 -15 6 0 10 7 10 15 0 8 -4 15 -10 15 -5 0
-10 -7 -10 -15z"></path>
<path d="M4910 5232 c0 -8 125 -41 270 -72 52 -10 111 -24 130 -30 43 -13 88
-13 74 -1 -9 9 -116 37 -224 60 -30 6 -95 20 -143 31 -99 22 -107 23 -107 12z"></path>
<path d="M2250 5190 c-8 -5 -12 -12 -9 -15 8 -8 39 5 39 16 0 11 -11 11 -30
-1z"></path>
<path d="M4662 5088 c-7 -57 -15 -118 -19 -135 -3 -19 -1 -33 5 -33 12 0 42
151 42 218 0 86 -15 59 -28 -50z"></path>
<path d="M2285 5090 c3 -5 8 -10 11 -10 2 0 4 5 4 10 0 6 -5 10 -11 10 -5 0
-7 -4 -4 -10z"></path>
<path d="M6060 4950 c0 -5 5 -10 10 -10 6 0 10 5 10 10 0 6 -4 10 -10 10 -5 0
-10 -4 -10 -10z"></path>
<path d="M4625 4844 c-6 -33 -1 -54 9 -43 10 10 17 79 8 79 -5 0 -13 -16 -17
-36z"></path>
<path d="M4640 4750 c0 -5 5 -10 10 -10 6 0 10 5 10 10 0 6 -4 10 -10 10 -5 0
-10 -4 -10 -10z"></path>
<path d="M4680 4740 c0 -5 7 -10 15 -10 8 0 15 5 15 10 0 6 -7 10 -15 10 -8 0
-15 -4 -15 -10z"></path>
<path d="M4730 4730 c0 -5 5 -10 10 -10 6 0 10 5 10 10 0 6 -4 10 -10 10 -5 0
-10 -4 -10 -10z"></path>
<path d="M4770 4721 c0 -5 39 -19 88 -31 87 -23 104 -27 237 -54 96 -19 238
-52 309 -71 52 -14 78 -14 65 0 -6 5 -264 70 -344 85 -33 7 -123 27 -200 46
-155 38 -155 38 -155 25z"></path>
<path d="M5490 4550 c0 -5 5 -10 10 -10 6 0 10 5 10 10 0 6 -4 10 -10 10 -5 0
-10 -4 -10 -10z"></path>
<path d="M5750 4492 c0 -6 12 -13 28 -16 15 -4 35 -9 45 -12 9 -3 17 -1 17 4
0 6 -12 13 -27 16 -16 4 -36 9 -45 12 -10 3 -18 1 -18 -4z"></path>
<path d="M5860 4460 c0 -5 7 -10 16 -10 8 0 12 5 9 10 -3 6 -10 10 -16 10 -5
0 -9 -4 -9 -10z"></path>
<path d="M5170 4090 c0 -5 5 -10 10 -10 6 0 10 5 10 10 0 6 -4 10 -10 10 -5 0
-10 -4 -10 -10z"></path>
<path d="M5730 3960 c0 -5 5 -10 10 -10 6 0 10 5 10 10 0 6 -4 10 -10 10 -5 0
-10 -4 -10 -10z"></path>
<path d="M3700 3810 c0 -11 5 -20 10 -20 6 0 10 9 10 20 0 11 -4 20 -10 20 -5
0 -10 -9 -10 -20z"></path>
<path d="M3710 3600 c0 -87 4 -140 10 -140 6 0 10 53 10 140 0 87 -4 140 -10
140 -6 0 -10 -53 -10 -140z"></path>
<path d="M5790 3420 c0 -5 5 -10 10 -10 6 0 10 5 10 10 0 6 -4 10 -10 10 -5 0
-10 -4 -10 -10z"></path>
<path d="M5870 3400 c0 -5 5 -10 10 -10 6 0 10 5 10 10 0 6 -4 10 -10 10 -5 0
-10 -4 -10 -10z"></path>
<path d="M2470 3365 c0 -8 5 -15 10 -15 6 0 10 7 10 15 0 8 -4 15 -10 15 -5 0
-10 -7 -10 -15z"></path>
<path d="M2480 3300 c0 -5 5 -10 10 -10 6 0 10 5 10 10 0 6 -4 10 -10 10 -5 0
-10 -4 -10 -10z"></path>
<path d="M4500 1050 c0 -5 5 -10 10 -10 6 0 10 5 10 10 0 6 -4 10 -10 10 -5 0
-10 -4 -10 -10z"></path>
</g>
</svg>